<?xml version="1.0" encoding="UTF-8"?>
<svg width="24px" height="24px" viewBox="0 0 25 25" fill="none" xmlns="http://www.w3.org/2000/svg">
<circle fill-rule="evenodd" clip-rule="evenodd" cx="12" cy="12" r="12" fill="#FEFEFE"></circle>
<path fill-rule="evenodd" clip-rule="evenodd" d="M4 12c0,-5 4,-8 8,-8 5,0 9,3 9,8l2 4c0,-1 0,-2 0,-4 0,-6 -5,-11 -11,-11 -6,0 -11,5 -11,11 0,2 0,3 1,4l2 -4z" fill="#FFB91D"></path>
<path fill-rule="evenodd" clip-rule="evenodd" d="M12 21c-2,0 -5,-1 -6,-3l2 -6 2 4c0,1 1,2 2,2 1,0 2,-1 3,-2l1 -4 3 6c-2,2 -4,3 -7,3zm7 -12c-1,-1 -2,-2 -3,-2l0 0c-1,0 -2,1 -2,2l-2 5 0 1 0 -2 -2 -4c0,-1 -1,-2 -2,-2l0 0c-1,0 -2,1 -2,2l-3 9c0,0 0,0 0,0 2,3 5,5 9,5 4,0 8,-2 10,-5 0,0 0,0 0,0l-3 -9z" fill="#0A0E23">
</path></svg>